<?xml version="1.0" encoding="UTF-8" standalone="no"?>
<svg version="1.1" width="14" height="14" viewBox="0 0 14 14" xmlns="http://www.w3.org/2000/svg" xmlns:svg="http://www.w3.org/2000/svg">
  <style type="text/css" id="current-color-scheme" />
  <path d="M 6.2142858,1 C 5.4285716,1 4.6428572,1.7657302 4.6428572,2.4999999 V 3.25 H 4.0535715 V 10 h 5.892857 V 3.25 H 9.357143 V 2.4999999 C 9.357143,1.7500001 8.5631889,1 7.7857143,1 Z M 6.607143,1.9375001 H 7.3928572 C 8.0685037,1.9375001 8.375,2.3870636 8.375,2.875 V 3.25 H 5.625 V 2.875 c 0,-0.4719038 0.2402628,-0.9374999 0.982143,-0.9374999 z M 3.0714285,3.25 C 2.0055682,3.25 1.5,3.7325878 1.5,4.75 V 8.5 c 0,1.017412 0.5879641,1.5 1.5714285,1.5 z m 7.8571425,0 V 10 C 11.912036,10 12.5,9.438761 12.5,8.5 V 4.75 c 0,-0.985952 -0.48909,-1.5 -1.571429,-1.5 z" class="ColorScheme-Text" style="fill:#000000"/>
  <path style="fill:#000000" d="M 3.0042262,11.136428 A 1,1 0 0 1 3.363741,12.503936 1,1 0 0 1 1.9963542,12.86391 1,1 0 0 1 1.6359206,11.496644 1,1 0 0 1 3.0030652,11.135752 L 2.5,12 Z" />
  <path style="fill:#000000" d="M 6.0042262,11.136428 A 1,1 0 0 1 6.363741,12.503936 1,1 0 0 1 4.9963542,12.86391 1,1 0 0 1 4.6359206,11.496644 1,1 0 0 1 6.0030652,11.135752 L 5.5,12 Z" />
  <path style="fill:#000000" d="M 9.0042262,11.136428 A 1,1 0 0 1 9.363741,12.503936 1,1 0 0 1 7.9963542,12.86391 1,1 0 0 1 7.6359206,11.496644 1,1 0 0 1 9.0030652,11.135752 L 8.5,12 Z" />
  <path style="fill:#000000" d="m 12.004226,11.136428 a 1,1 0 0 1 0.359515,1.367508 1,1 0 0 1 -1.367387,0.359974 1,1 0 0 1 -0.360433,-1.367266 1,1 0 0 1 1.367144,-0.360892 L 11.5,12 Z" />
</svg>
