<?xml version="1.0" encoding="UTF-8" standalone="no"?>
<svg version="1.1" viewBox="0 0 14 14" height="14" width="14" xmlns="http://www.w3.org/2000/svg" xmlns:svg="http://www.w3.org/2000/svg">
  <style type="text/css" id="current-color-scheme"/>
  <path d="M 1.1717283,0.36453299 C 1.7808167,-8.6830118e-4 2.5394328,-0.10211567 3.2174543,0.10882664 4.0168062,0.34279587 4.6798321,1.0075739 4.921219,1.8163061 5.0875741,2.4271682 4.999461,3.1487448 4.5707371,3.6320719 4.2508686,4.0049407 3.8070441,4.2309727 3.4512089,4.5624689 3.3027295,4.6985949 3.180906,4.8813555 3.1739128,5.0906187 3.1658123,5.4310731 3.1735148,5.7718904 3.1705075,6.1125191 2.7284103,6.1122495 2.286345,6.1122943 1.844293,6.1124805 1.8443372,5.5910974 1.8431254,5.069703 1.844691,4.5483609 1.8467474,4.2101709 2.0064169,3.8850394 2.2551329,3.6637596 2.4946885,3.426634 2.8271494,3.3311645 3.0854073,3.1205385 3.3237043,2.9341119 3.521859,2.6661275 3.556083,2.3552195 3.5716058,2.0543266 3.4427646,1.7334597 3.1828164,1.5731794 2.9307217,1.4125255 2.6207916,1.4129761 2.3341068,1.434526 2.0098274,1.465816 1.674059,1.6196558 1.5093219,1.9184016 1.3071253,2.2756289 1.3241118,2.7030769 1.3241843,3.1011959 c -0.43837746,2.831e-4 -0.87672752,2.742e-4 -1.31506696,0 C -0.0121974,2.5539338 -0.01643364,1.9770505 0.23376666,1.475908 0.45923369,1.0429159 0.75001813,0.61990608 1.1717279,0.36453299 Z m 0,0"
     class="ColorScheme-Text" style="fill:currentColor"/>
  <path d="m 1.8443289,6.5841842 c 0.4384053,3.596e-4 0.8768234,-3.91e-5 1.3152752,2.247e-4 1.328e-4,0.4717915 1.328e-4,0.9435889 9e-7,1.4154112 C 2.7211436,8 2.2827156,7.9996853 1.8443001,8 1.8439021,7.5280503 1.8438577,7.0561258 1.8443289,6.5842085 Z m 0,0" class="ColorScheme-Text" style="fill:currentColor"/>
  <path d="M 1.3789633,12.18727 C 3.4226576,9.0409082 5.4709778,5.8975226 7.5160535,2.7520405 8.0153589,3.2525829 8.5151794,3.7526132 9.0151478,4.2525144 9.4974886,3.7698123 9.9797988,3.2870685 10.462133,2.8043141 10.664961,2.6055823 10.853777,2.384393 11.105008,2.244196 c 0.784034,-0.4579584 1.890437,-0.255407 2.439582,0.4703274 0.342919,0.442035 0.531984,1.0260718 0.425966,1.5852799 -0.0891,0.4802876 -0.389252,0.8970775 -0.753919,1.2108802 C 13.071644,5.6272439 12.866083,5.706738 12.686584,5.6241123 12.517432,5.5452683 12.362737,5.3824173 12.365036,5.184993 12.375886,4.9726359 12.515781,4.7934825 12.659847,4.6485507 12.889881,4.4554356 13.044252,4.154588 13.010037,3.8500399 12.977155,3.5753354 12.824601,3.3083156 12.588631,3.1605109 12.197667,2.9511211 11.642581,2.974153 11.340416,3.3305013 10.799683,3.8729654 10.257706,4.4141549 9.7166575,4.9562637 10.193081,5.4299909 10.666594,5.9066586 11.142013,6.3814323 8.0336478,8.4630424 4.921804,10.539445 1.8141687,12.62211 1.6690287,12.477183 1.5246678,12.331534 1.3789632,12.18727 Z m 0,0" class="ColorScheme-Text" style="fill:currentColor"/>
  <path d="m 0.05185138,13.915357 c -0.08549195,-0.09719 -0.05888547,-0.252019 0.03322122,-0.335361 0.37756717,-0.379696 0.75689752,-0.757694 1.1351361,-1.136753 0.1128074,0.112889 0.2256602,0.225773 0.3384436,0.338809 -0.3786877,0.378047 -0.75543325,0.758121 -1.13528154,1.13494 -0.0965013,0.103827 -0.28258898,0.117894 -0.37151912,-0.0016 z m 0,0"
     class="ColorScheme-Text" style="fill:currentColor"/>
</svg>
