<?xml version="1.0" encoding="UTF-8" standalone="no"?>
<svg version="1.1" width="14" height="14" viewBox="0 0 14 14" xmlns="http://www.w3.org/2000/svg" xmlns:svg="http://www.w3.org/2000/svg">
  <style type="text/css" id="current-color-scheme"/>
  <path d="M 6.2142858,5 C 5.4285716,5 4.6428572,5.7657302 4.6428572,6.4999999 V 7.25 H 4.0535715 V 14 h 5.892857 V 7.25 H 9.357143 V 6.4999999 C 9.357143,5.7500001 8.5631889,5 7.7857143,5 Z M 6.607143,5.9375001 H 7.3928572 C 8.0685037,5.9375001 8.375,6.3870636 8.375,6.875 V 7.25 H 5.625 V 6.875 c 0,-0.4719038 0.2402628,-0.9374999 0.982143,-0.9374999 z M 3.0714285,7.25 C 2.0055682,7.25 1.5,7.7325878 1.5,8.75 v 3.75 c 0,1.017412 0.5879641,1.5 1.5714285,1.5 z m 7.8571425,0 V 14 C 11.912036,14 12.5,13.438761 12.5,12.5 V 8.75 c 0,-0.985952 -0.48909,-1.5 -1.571429,-1.5 z" class="ColorScheme-Text" style="fill:currentColor;"/>
  <path d="M 3.5,0 C 2.119288,0 1,1.1192881 1,2.5 1,3.8807119 2.119288,5 3.5,5 4.425342,5 5.223985,4.4972377 5.65625,3.75 H 7 l 1,-1 1,1 1,-1 1,1 h 0.5 L 13,2.5 11.5,1.25 H 5.65625 C 5.223985,0.5027623 4.425342,0 3.5,0 Z m -1,2 C 2.776142,2 3,2.2238576 3,2.5 3,2.7761424 2.776142,3 2.5,3 2.223858,3 2,2.7761424 2,2.5 2,2.2238576 2.223858,2 2.5,2 Z" class="ColorScheme-Text" style="fill:currentColor;"/>
</svg>
